<?xml version="1.0" encoding="utf-8"?>
<!-- Generator: Adobe Illustrator 17.1.0, SVG Export Plug-In . SVG Version: 6.00 Build 0)  -->
<!DOCTYPE svg PUBLIC "-//W3C//DTD SVG 1.1//EN" "http://www.w3.org/Graphics/SVG/1.1/DTD/svg11.dtd">
<svg version="1.1" id="Слой_1" xmlns="http://www.w3.org/2000/svg" xmlns:xlink="http://www.w3.org/1999/xlink" x="0px" y="0px"
	 viewBox="0 0 348 80" enable-background="new 0 0 348 80" xml:space="preserve">
<g>
	<linearGradient id="SVGID_1_" gradientUnits="userSpaceOnUse" x1="28.6667" y1="72.3038" x2="67.4385" y2="27.5316">
		<stop  offset="9.374335e-002" style="stop-color:#E04E2D"/>
		<stop  offset="0.3142" style="stop-color:#E3772F"/>
		<stop  offset="0.6316" style="stop-color:#E7AC32"/>
		<stop  offset="0.8699" style="stop-color:#E9CD34"/>
		<stop  offset="1" style="stop-color:#EADA35"/>
	</linearGradient>
	<path fill="url(#SVGID_1_)" d="M3.8,69.2c-0.4,0.7-0.4,1.5,0.1,2.1C4.3,71.8,5,72.1,5.7,72h48.8c2.5,0,4.6-2.1,4.6-4.8V16.2
		c0.1-0.8-0.2-1.6-0.9-1.9c-0.7-0.4-1.5-0.3-2.1,0.3C38.6,32.7,21.2,51,3.8,69.2z"/>
	<g>
		<g>
			<path fill="#353535" d="M107.8,69c-0.8,0-2.1,0.3-3.7,0.8c-1.6,0.5-3.6,0.8-6.1,0.8c-4,0-7.7-0.7-11-2.2
				c-3.4-1.4-6.2-3.4-8.6-5.9c-2.4-2.5-4.3-5.4-5.6-8.7c-1.4-3.3-2-6.9-2-10.7c0-3.8,0.7-7.5,2-10.8s3.2-6.3,5.6-8.8
				c2.4-2.5,5.2-4.5,8.5-5.9c3.3-1.4,6.9-2.2,10.7-2.2c2.7,0,4.8,0.3,6.5,0.8c1.7,0.6,3,0.8,4,0.8c0.7,0,1.5-0.2,2.5-0.7v14.2
				c-1.2-1.6-2.9-2.9-5-3.8c-2.1-0.9-4.6-1.4-7.5-1.4c-2.5,0-4.8,0.4-6.9,1.3c-2.1,0.9-3.9,2.1-5.4,3.7c-1.5,1.6-2.7,3.4-3.5,5.6
				c-0.8,2.2-1.3,4.6-1.3,7.1c0,2.7,0.4,5.1,1.3,7.2c0.9,2.2,2.1,4,3.6,5.6c1.5,1.5,3.3,2.7,5.3,3.6c2,0.8,4.2,1.3,6.6,1.3
				c3.2,0,5.8-0.5,7.9-1.5c2.1-1,3.7-2.3,4.7-4.1v15.1C109.2,69.4,108.3,69,107.8,69z"/>
			<path fill="#353535" d="M123,17.8h11.8v6.1c1.4-1.9,2.9-3.3,4.4-4.2c1.5-0.9,2.9-1.6,4.3-2c1.4-0.5,2.6-0.8,3.8-1.2
				c1.2-0.3,2.1-0.8,2.9-1.5v13.3c-1.5-0.4-2.7-0.6-3.8-0.6c-4.3,0-8.1,2.2-11.6,6.7v30.2c0,1.6,0.7,2.9,2,4h-14.1
				c1.4-1.3,2.1-2.6,2.1-4V21.3C124.8,19.4,124.2,18.2,123,17.8z"/>
			<path fill="#353535" d="M197.5,62.5c-3.9,5.4-9.3,8.1-16.2,8.1c-3.9,0-7.4-0.7-10.6-2c-3.2-1.3-6-3.2-8.3-5.6
				c-2.3-2.4-4.2-5.3-5.5-8.7c-1.3-3.4-1.9-7.2-1.9-11.3c0-4,0.7-7.7,2-11.1c1.4-3.4,3.3-6.4,5.7-8.9c2.4-2.5,5.3-4.5,8.6-5.9
				c3.3-1.4,6.8-2.1,10.6-2.1c3.2,0,6.2,0.5,9.3,1.6s5.7,2.4,7.9,4.1c0.8,0.6,1.6,1.3,2.3,1.9c0.7,0.7,1.3,1.3,2,1.8
				c0.7,0.5,1.4,1,2.2,1.3c0.8,0.4,1.6,0.5,2.6,0.5c0.2,0,0.5,0,0.7,0c0.3,0,0.6,0,0.8-0.1c-0.9,0.6-1.5,1.2-1.8,1.9
				c-0.3,0.7-0.4,1.5-0.4,2.5v35c0,0.8,0.2,1.5,0.5,1.9c0.3,0.4,0.9,0.8,1.7,1.2h-12.2V62.5z M197.5,32.5c-1.8-2.5-3.9-4.4-6.5-5.7
				c-2.6-1.3-5.4-1.9-8.6-1.9c-2.5,0-4.7,0.5-6.8,1.4c-2.1,0.9-3.9,2.2-5.5,3.7c-1.6,1.6-2.8,3.4-3.7,5.6c-0.9,2.1-1.3,4.5-1.3,7
				c0,5.7,1.6,10.1,4.7,13.4c3.1,3.3,7.2,4.9,12.3,4.9c6.4,0,11.5-2.7,15.2-8.2V32.5z"/>
			<path fill="#353535" d="M216.4,26.9l18.4-24.1V17h11.9v11.1c-0.9-0.8-2.1-1.3-3.7-1.3h-8.2v37.7c0,1.6,0.7,2.9,2,4h-14.1
				c1.4-1.3,2.1-2.6,2.1-4V26.9H216.4z"/>
			<path fill="#353535" d="M249.9,42.8c0-3.9,0.7-7.5,2.2-10.8c1.5-3.4,3.5-6.3,6-8.7c2.6-2.5,5.5-4.4,8.9-5.8
				c3.4-1.4,7-2.2,10.8-2.2c3.9,0,7.5,0.7,10.9,2.2c3.4,1.5,6.4,3.4,8.9,5.9c2.5,2.5,4.5,5.4,6,8.7c1.5,3.3,2.2,6.9,2.2,10.7
				s-0.7,7.4-2.2,10.7c-1.5,3.4-3.5,6.3-6,8.8c-2.5,2.5-5.5,4.5-8.9,6c-3.4,1.5-7,2.2-10.9,2.2c-3.8,0-7.4-0.7-10.8-2.2
				c-3.4-1.4-6.4-3.4-8.9-5.9c-2.6-2.5-4.6-5.5-6-8.8C250.6,50.2,249.9,46.6,249.9,42.8z M260.2,42.8c0,2.5,0.5,4.8,1.4,6.9
				c0.9,2.1,2.2,4,3.8,5.6c1.6,1.6,3.4,2.9,5.6,3.8s4.4,1.4,6.8,1.4c2.4,0,4.7-0.5,6.8-1.4c2.2-0.9,4.1-2.2,5.6-3.9
				c1.6-1.7,2.8-3.5,3.8-5.7c0.9-2.1,1.4-4.4,1.4-6.8s-0.5-4.7-1.4-6.8c-0.9-2.2-2.2-4.1-3.8-5.6c-1.6-1.6-3.5-2.8-5.6-3.8
				c-2.1-0.9-4.4-1.4-6.9-1.4c-2.5,0-4.7,0.5-6.8,1.4c-2.1,0.9-4,2.2-5.6,3.8c-1.6,1.6-2.9,3.5-3.8,5.6
				C260.6,38.1,260.2,40.4,260.2,42.8z"/>
			<path fill="#353535" d="M311.6,54.2c2,2.2,4,3.9,6.2,5c2.2,1.1,4.4,1.7,6.7,1.7c2.8,0,5-0.7,6.5-2c1.5-1.3,2.3-3,2.3-4.9
				c0-1.1-0.2-2.1-0.6-2.9c-0.4-0.8-1-1.5-1.8-2.2c-0.8-0.7-1.7-1.3-3-2c-1.2-0.7-2.6-1.4-4.1-2.3c-2-1.1-3.7-2.1-5-3.1
				c-1.4-1-2.5-2.1-3.4-3.3c-0.9-1.2-1.5-2.5-2-3.9c-0.4-1.4-0.6-3.1-0.6-5c0-2,0.3-3.8,1-5.5c0.7-1.7,1.6-3.2,2.9-4.5
				c1.3-1.3,2.8-2.3,4.5-3c1.7-0.7,3.7-1.1,5.9-1.1c2.4,0,4.4,0.2,6,0.6c1.5,0.4,2.7,0.6,3.5,0.6c0.6,0,1.1-0.2,1.5-0.5
				c0.5-0.3,1-0.8,1.5-1.3v15c-3.5-3.4-6.8-5.1-10-5.1c-1.9,0-3.4,0.5-4.6,1.4c-1.2,0.9-1.8,2.2-1.8,3.7c0,1.6,0.6,2.9,1.8,3.8
				c1.2,0.9,2.9,2,5.1,3.3c2,1.2,3.9,2.3,5.5,3.4c1.7,1.1,3.1,2.3,4.3,3.6c1.2,1.3,2.1,2.7,2.8,4.4c0.7,1.6,1,3.5,1,5.8
				c0,5.3-1.5,9.3-4.6,12.3c-3.1,2.9-7.4,4.4-12.8,4.4c-2.7,0-4.9-0.3-6.8-0.8c-1.9-0.6-3.4-0.8-4.6-0.8c-0.6,0-1.1,0.1-1.6,0.3
				c-0.5,0.2-1,0.5-1.6,0.8V54.2z"/>
		</g>
	</g>
</g>
</svg>
